<svg width="60" height="60" viewBox="0 0 60 60" fill="none" xmlns="http://www.w3.org/2000/svg" id="icon-arr-r">
<circle cx="30" cy="30" r="30" fill="#7A2841"/>
<path d="M35.2073 29.188C35.4604 29.4411 35.4604 29.8515 35.2073 30.1046L28.7913 36.5207C28.5382 36.7738 28.1278 36.7738 27.8747 36.5207C27.6216 36.2675 27.6216 35.8572 27.8747 35.6041L34.2908 29.188C34.5439 28.9349 34.9542 28.9349 35.2073 29.188Z" fill="#F5EAD9"/>
<path d="M35.2073 30.1046C34.9542 30.3577 34.5443 30.3574 34.2911 30.1043L27.8751 23.6882C27.622 23.4351 27.622 23.0248 27.8751 22.7717C28.1282 22.5186 28.5386 22.5186 28.7917 22.7717L35.2073 29.188C35.4604 29.4411 35.4604 29.8515 35.2073 30.1046Z" fill="#F5EAD9"/>
</svg>
